<svg id="Layer_1" data-name="Layer 1" xmlns="http://www.w3.org/2000/svg" viewBox="0 0 512 512"><title>to-do-list</title><g id="to_do_list" data-name="to do list"><g id="back"><rect width="512" height="512" fill="#ffc2c1"/></g><g id="icon"><path d="M140.05,160.28c0,11.54,13.66,17.52,29.67,17.52s28.31-6,28.31-17.52-13-20.9-29-20.9S140.05,148.73,140.05,160.28Z" fill="#f05354"/><path d="M352.06,373.29a20.22,20.22,0,0,0,0-40.44H219.53l6,6.74a20.19,20.19,0,0,1,0,27l-6,6.74Z" fill="#f05354"/><path d="M210.5,373.29a20.22,20.22,0,0,0,0-40.44H334.77V164c0-14.47-14.9-25.28-28.21-25.28H169.16l6.42,6.82a19.58,19.58,0,0,1,5.49,13.4V346c0,13.19,9.79,27.3,24.36,27.3Z" fill="#fff"/><path d="M259.72,169.77A18.62,18.62,0,1,1,291,183.38h0l-31.3,31.3-31.32-31.3,0,0a18.6,18.6,0,1,1,31.28-13.59Z" fill="#ffc2c1"/><path d="M171.91,182.93c-15.25,0-24.27-2.32-29.76-7.56-4-3.8-6-9.15-6.15-16.36a23.11,23.11,0,0,1,6.68-16.77A24.3,24.3,0,0,1,159.94,135a3.72,3.72,0,0,1,0,7.45,16.79,16.79,0,0,0-11.94,5,15.7,15.7,0,0,0-4.56,11.4c.11,5.19,1.33,8.73,3.85,11.13,4.31,4.11,13.44,5.84,28.73,5.45h.09a3.72,3.72,0,0,1,.09,7.45Q174,182.93,171.91,182.93Z" fill="#393939"/><path d="M352.06,377H210.5a3.72,3.72,0,1,1,0-7.45,16.5,16.5,0,1,0,0-33,3.72,3.72,0,1,1,0-7.45H352.06a23.95,23.95,0,1,1,0,47.89Zm-124.22-7.45H352.06a16.5,16.5,0,1,0,0-33H227.84a23.91,23.91,0,0,1,0,33Z" fill="#393939"/><path d="M217.48,377h-12c-15.23,0-28.09-14.21-28.09-31V158.93c0-8.79-8.14-16.5-17.41-16.5a3.72,3.72,0,1,1,0-7.45H306.56c15.08,0,31.94,12.4,31.94,29V328.8a3.72,3.72,0,0,1-7.45,0V164c0-12.14-13.16-21.56-24.49-21.56H177.77a23.42,23.42,0,0,1,7,16.5V346c0,11.39,8.29,23.58,20.64,23.58h12a3.72,3.72,0,0,1,0,7.45Z" fill="#393939"/><rect x="205.83" y="223.97" width="21.33" height="7.45" fill="#393939"/><rect x="205.83" y="248.23" width="21.33" height="7.45" fill="#393939"/><rect x="205.83" y="272.5" width="21.33" height="7.45" fill="#393939"/><rect x="205.83" y="296.77" width="21.33" height="7.45" fill="#393939"/><rect x="241.64" y="223.97" width="71.97" height="7.45" fill="#393939"/><rect x="241.64" y="248.23" width="71.97" height="7.45" fill="#393939"/><rect x="241.64" y="272.5" width="71.97" height="7.45" fill="#393939"/><rect x="241.64" y="296.77" width="71.97" height="7.45" fill="#393939"/><path d="M215.79,175.37h-7.87v-2.84h19.17v2.84h-7.91v23h-3.38Z" fill="#393939"/><path d="M251,185.2c0,8.91-5.41,13.64-12,13.64-6.84,0-11.64-5.3-11.64-13.13,0-8.22,5.11-13.6,12-13.6C246.47,172.11,251,177.52,251,185.2Zm-20.09.42c0,5.53,3,10.49,8.26,10.49s8.3-4.88,8.3-10.75c0-5.15-2.69-10.53-8.26-10.53S230.95,179.95,230.95,185.63Z" fill="#393939"/><path d="M263.49,172.88a48.1,48.1,0,0,1,7.11-.54c4.8,0,8.22,1.11,10.48,3.23s3.65,5.11,3.65,9.29-1.31,7.68-3.73,10.06-6.41,3.73-11.44,3.73a53.74,53.74,0,0,1-6.07-.31Zm3.34,22.89a20.75,20.75,0,0,0,3.38.19c7.15,0,11-4,11-11,0-6.11-3.42-10-10.49-10a18.94,18.94,0,0,0-3.92.35Z" fill="#393939"/><path d="M311.18,185.2c0,8.91-5.42,13.64-12,13.64-6.84,0-11.64-5.3-11.64-13.13,0-8.22,5.11-13.6,12-13.6C306.61,172.11,311.18,177.52,311.18,185.2Zm-20.09.42c0,5.53,3,10.49,8.26,10.49s8.29-4.88,8.29-10.75c0-5.15-2.69-10.53-8.26-10.53S291.09,179.95,291.09,185.63Z" fill="#393939"/></g></g></svg>